<svg xmlns="http://www.w3.org/2000/svg" xmlns:xlink="http://www.w3.org/1999/xlink" viewBox="73 105 245 89"><defs><clipPath id="281b67200b"><path d="M 73.042969 105.265625 L 94.792969 105.265625 L 94.792969 127 L 73.042969 127 Z M 73.042969 105.265625 "/></clipPath></defs><g id="2de50ba907"><g style="fill:#decda8;fill-opacity:1;"><g transform="translate(204.172048, 176.067065)"><path style="stroke:none" d="M 17.828125 -39.5 C 18.765625 -39.5 19.664062 -39.351562 20.53125 -39.0625 C 21.40625 -38.769531 22.390625 -38.394531 23.484375 -37.9375 C 24.410156 -37.53125 24.960938 -37.328125 25.140625 -37.328125 C 25.609375 -37.328125 25.984375 -37.484375 26.265625 -37.796875 C 26.554688 -38.117188 26.9375 -38.6875 27.40625 -39.5 L 29.140625 -39.5 L 27.0625 -26.359375 L 25.578125 -26.359375 C 25.398438 -30.304688 24.703125 -33.160156 23.484375 -34.921875 C 22.265625 -36.691406 20.703125 -37.578125 18.796875 -37.578125 C 17.515625 -37.578125 16.46875 -37.171875 15.65625 -36.359375 C 14.84375 -35.546875 14.4375 -34.535156 14.4375 -33.328125 C 14.4375 -32.335938 14.65625 -31.347656 15.09375 -30.359375 C 15.53125 -29.378906 16.269531 -28.078125 17.3125 -26.453125 L 21.3125 -20.265625 C 22.351562 -18.703125 23.191406 -17.019531 23.828125 -15.21875 C 24.472656 -13.425781 24.796875 -11.773438 24.796875 -10.265625 C 24.796875 -8.347656 24.257812 -6.519531 23.1875 -4.78125 C 22.113281 -3.039062 20.691406 -1.632812 18.921875 -0.5625 C 17.148438 0.507812 15.28125 1.046875 13.3125 1.046875 C 12.207031 1.046875 11.273438 0.925781 10.515625 0.6875 C 9.765625 0.457031 8.957031 0.113281 8.09375 -0.34375 C 7.976562 -0.40625 7.703125 -0.535156 7.265625 -0.734375 C 6.828125 -0.941406 6.4375 -1.046875 6.09375 -1.046875 C 5.507812 -1.046875 5.03125 -0.882812 4.65625 -0.5625 C 4.28125 -0.25 3.890625 0.285156 3.484375 1.046875 L 2 1.046875 L 4.171875 -12.703125 L 5.65625 -12.703125 L 5.65625 -11.75 C 5.65625 -8.382812 6.394531 -5.726562 7.875 -3.78125 C 9.351562 -1.84375 11.109375 -0.875 13.140625 -0.875 C 14.703125 -0.875 16.046875 -1.484375 17.171875 -2.703125 C 18.304688 -3.921875 18.875 -5.425781 18.875 -7.21875 C 18.875 -8.4375 18.65625 -9.625 18.21875 -10.78125 C 17.789062 -11.945312 17.140625 -13.253906 16.265625 -14.703125 L 12.359375 -20.96875 C 10.265625 -24.332031 9.21875 -27.4375 9.21875 -30.28125 C 9.21875 -32.882812 10.046875 -35.070312 11.703125 -36.84375 C 13.359375 -38.613281 15.398438 -39.5 17.828125 -39.5 Z M 17.828125 -39.5 "/></g></g><g style="fill:#decda8;fill-opacity:1;"><g transform="translate(227.832363, 176.067065)"><path style="stroke:none" d="M 18.796875 -48.8125 L 20.265625 -48.8125 L 17.921875 -38.453125 L 23.84375 -38.453125 L 23.234375 -35.84375 L 17.3125 -35.84375 L 10.53125 -6.609375 C 10.414062 -6.148438 10.359375 -5.6875 10.359375 -5.21875 C 10.359375 -4.175781 10.675781 -3.65625 11.3125 -3.65625 C 12.582031 -3.65625 14.492188 -5.425781 17.046875 -8.96875 L 18.796875 -8.96875 C 16.703125 -5.832031 14.625 -3.378906 12.5625 -1.609375 C 10.507812 0.160156 8.671875 1.046875 7.046875 1.046875 C 6.054688 1.046875 5.242188 0.6875 4.609375 -0.03125 C 3.972656 -0.757812 3.65625 -1.707031 3.65625 -2.875 C 3.65625 -4.03125 4.0625 -6.378906 4.875 -9.921875 L 10.875 -35.84375 L 5.828125 -35.84375 L 6.265625 -37.671875 C 8.640625 -38.421875 10.941406 -39.8125 13.171875 -41.84375 C 15.410156 -43.875 17.285156 -46.195312 18.796875 -48.8125 Z M 18.796875 -48.8125 "/></g></g><g style="fill:#decda8;fill-opacity:1;"><g transform="translate(243.315772, 176.067065)"><path style="stroke:none" d="M 22.96875 -39.5 C 26.21875 -39.5 28.738281 -38.367188 30.53125 -36.109375 C 32.332031 -33.847656 33.234375 -30.6875 33.234375 -26.625 C 33.234375 -22.5 32.316406 -18.273438 30.484375 -13.953125 C 28.660156 -9.640625 26.195312 -6.0625 23.09375 -3.21875 C 19.988281 -0.375 16.671875 1.046875 13.140625 1.046875 C 9.953125 1.046875 7.441406 -0.0507812 5.609375 -2.25 C 3.785156 -4.457031 2.875 -7.535156 2.875 -11.484375 C 2.875 -15.710938 3.800781 -20.015625 5.65625 -24.390625 C 7.507812 -28.773438 9.988281 -32.390625 13.09375 -35.234375 C 16.195312 -38.078125 19.488281 -39.5 22.96875 -39.5 Z M 15.75 -32.359375 C 13.945312 -28.472656 12.460938 -23.816406 11.296875 -18.390625 C 10.140625 -12.972656 9.5625 -9.078125 9.5625 -6.703125 C 9.5625 -4.847656 9.925781 -3.410156 10.65625 -2.390625 C 11.382812 -1.378906 12.5 -0.875 14 -0.875 C 16.726562 -0.875 18.960938 -2.695312 20.703125 -6.34375 C 22.441406 -10.0625 23.847656 -14.53125 24.921875 -19.75 C 25.992188 -24.96875 26.53125 -28.820312 26.53125 -31.3125 C 26.53125 -35.488281 25.050781 -37.578125 22.09375 -37.578125 C 20.644531 -37.578125 19.425781 -37.140625 18.4375 -36.265625 C 17.457031 -35.398438 16.5625 -34.097656 15.75 -32.359375 Z M 15.75 -32.359375 "/></g></g><g style="fill:#decda8;fill-opacity:1;"><g transform="translate(271.499479, 176.067065)"><path style="stroke:none" d="M 18.4375 -56.71875 C 19.65625 -56.71875 20.6875 -56.296875 21.53125 -55.453125 C 22.375 -54.617188 22.796875 -53.59375 22.796875 -52.375 C 22.796875 -51.15625 22.375 -50.125 21.53125 -49.28125 C 20.6875 -48.445312 19.65625 -48.03125 18.4375 -48.03125 C 17.21875 -48.03125 16.1875 -48.445312 15.34375 -49.28125 C 14.507812 -50.125 14.09375 -51.15625 14.09375 -52.375 C 14.09375 -53.59375 14.507812 -54.617188 15.34375 -55.453125 C 16.1875 -56.296875 17.21875 -56.71875 18.4375 -56.71875 Z M 18.96875 -39.5 L 11.75 -8.09375 C 11.34375 -6.46875 11.140625 -5.484375 11.140625 -5.140625 C 11.140625 -4.609375 11.238281 -4.226562 11.4375 -4 C 11.644531 -3.769531 11.863281 -3.65625 12.09375 -3.65625 C 12.613281 -3.65625 13.4375 -4.191406 14.5625 -5.265625 C 15.695312 -6.335938 16.847656 -7.6875 18.015625 -9.3125 L 19.234375 -8.53125 C 17.203125 -5.738281 15.179688 -3.441406 13.171875 -1.640625 C 11.171875 0.148438 9.390625 1.046875 7.828125 1.046875 C 6.785156 1.046875 5.972656 0.695312 5.390625 0 C 4.816406 -0.695312 4.53125 -1.625 4.53125 -2.78125 C 4.53125 -4.113281 4.757812 -5.738281 5.21875 -7.65625 C 5.6875 -9.570312 5.921875 -10.585938 5.921875 -10.703125 L 9.5625 -26.796875 C 9.96875 -28.359375 10.269531 -29.660156 10.46875 -30.703125 C 10.675781 -31.753906 10.78125 -32.566406 10.78125 -33.140625 C 10.78125 -34.941406 9.882812 -35.84375 8.09375 -35.84375 C 7.800781 -35.84375 6.957031 -35.753906 5.5625 -35.578125 L 5.921875 -36.96875 L 17.578125 -39.5 Z M 18.96875 -39.5 "/></g></g><g style="fill:#decda8;fill-opacity:1;"><g transform="translate(286.982888, 176.067065)"><path style="stroke:none" d="M 22.53125 -39.5 C 24.445312 -39.5 26.023438 -38.890625 27.265625 -37.671875 C 28.515625 -36.453125 29.140625 -34.828125 29.140625 -32.796875 C 29.140625 -31.117188 28.71875 -29.753906 27.875 -28.703125 C 27.039062 -27.660156 25.984375 -27.140625 24.703125 -27.140625 C 23.835938 -27.140625 23.113281 -27.414062 22.53125 -27.96875 C 21.945312 -28.519531 21.65625 -29.234375 21.65625 -30.109375 C 21.65625 -30.859375 21.785156 -31.421875 22.046875 -31.796875 C 22.316406 -32.171875 22.738281 -32.617188 23.3125 -33.140625 C 23.832031 -33.546875 24.191406 -33.894531 24.390625 -34.1875 C 24.597656 -34.476562 24.703125 -34.882812 24.703125 -35.40625 C 24.703125 -35.988281 24.441406 -36.492188 23.921875 -36.921875 C 23.398438 -37.359375 22.765625 -37.578125 22.015625 -37.578125 C 20.035156 -37.578125 18.085938 -36.398438 16.171875 -34.046875 C 14.265625 -31.703125 12.71875 -28.660156 11.53125 -24.921875 C 10.34375 -21.179688 9.75 -17.335938 9.75 -13.390625 C 9.75 -9.503906 10.285156 -6.691406 11.359375 -4.953125 C 12.429688 -3.210938 13.75 -2.34375 15.3125 -2.34375 C 18.207031 -2.34375 21.28125 -4.78125 24.53125 -9.65625 L 25.671875 -8.78125 C 23.753906 -5.707031 21.601562 -3.300781 19.21875 -1.5625 C 16.84375 0.175781 14.46875 1.046875 12.09375 1.046875 C 9.3125 1.046875 7.035156 -0.0664062 5.265625 -2.296875 C 3.492188 -4.535156 2.609375 -7.484375 2.609375 -11.140625 C 2.609375 -16.066406 3.679688 -20.703125 5.828125 -25.046875 C 7.972656 -29.398438 10.609375 -32.894531 13.734375 -35.53125 C 16.867188 -38.175781 19.800781 -39.5 22.53125 -39.5 Z M 22.53125 -39.5 "/></g></g><g style="fill:#decda8;fill-opacity:1;"><g transform="translate(79.164, 176.067065)"><path style="stroke:none" d="M 32.796875 -62.03125 L 32.796875 -10.53125 C 32.796875 -8.5 33.039062 -7.03125 33.53125 -6.125 C 34.03125 -5.226562 34.890625 -4.78125 36.109375 -4.78125 C 36.742188 -4.78125 37.148438 -4.867188 37.328125 -5.046875 L 37.84375 -3.65625 L 27.40625 1.21875 L 25.84375 1.21875 L 25.84375 -5.484375 L 25.671875 -5.484375 C 22.710938 -1.015625 19.40625 1.21875 15.75 1.21875 C 13.25 1.21875 11.039062 0.4375 9.125 -1.125 C 7.21875 -2.695312 5.726562 -4.898438 4.65625 -7.734375 C 3.582031 -10.578125 3.046875 -13.859375 3.046875 -17.578125 C 3.046875 -21.984375 3.679688 -25.96875 4.953125 -29.53125 C 6.234375 -33.101562 8.003906 -35.90625 10.265625 -37.9375 C 12.523438 -39.96875 15.046875 -40.984375 17.828125 -40.984375 C 19.222656 -40.984375 20.554688 -40.71875 21.828125 -40.1875 C 23.109375 -39.664062 24.445312 -38.882812 25.84375 -37.84375 L 25.84375 -51.25 C 25.84375 -52.632812 25.59375 -53.773438 25.09375 -54.671875 C 24.601562 -55.578125 23.804688 -56.03125 22.703125 -56.03125 C 22.128906 -56.03125 21.316406 -55.851562 20.265625 -55.5 L 19.75 -56.890625 L 31.234375 -62.03125 Z M 10.875 -21.75 C 10.875 -16.238281 11.566406 -11.890625 12.953125 -8.703125 C 14.347656 -5.515625 16.296875 -3.921875 18.796875 -3.921875 C 19.953125 -3.921875 21.082031 -4.28125 22.1875 -5 C 23.289062 -5.726562 24.507812 -6.90625 25.84375 -8.53125 L 25.84375 -26.53125 C 25.84375 -29.601562 25.1875 -32.34375 23.875 -34.75 C 22.570312 -37.15625 20.703125 -38.359375 18.265625 -38.359375 C 15.484375 -38.359375 13.554688 -36.675781 12.484375 -33.3125 C 11.410156 -29.957031 10.875 -26.101562 10.875 -21.75 Z M 10.875 -21.75 "/></g></g><g style="fill:#decda8;fill-opacity:1;"><g transform="translate(111.871098, 176.067065)"><path style="stroke:none" d="M 16.875 -40.984375 C 20.53125 -40.984375 23.253906 -40.082031 25.046875 -38.28125 C 26.847656 -36.476562 27.75 -34.300781 27.75 -31.75 L 27.75 -7.75 C 27.75 -5.195312 28.503906 -3.921875 30.015625 -3.921875 C 30.484375 -3.921875 30.945312 -4.019531 31.40625 -4.21875 C 31.875 -4.425781 32.453125 -4.816406 33.140625 -5.390625 L 33.140625 -3.921875 C 32.046875 -2.234375 30.84375 -0.953125 29.53125 -0.078125 C 28.226562 0.785156 26.941406 1.21875 25.671875 1.21875 C 24.160156 1.21875 22.984375 0.640625 22.140625 -0.515625 C 21.296875 -1.679688 20.875 -3.539062 20.875 -6.09375 L 20.703125 -6 C 17.972656 -1.1875 14.726562 1.21875 10.96875 1.21875 C 8.414062 1.21875 6.3125 0.347656 4.65625 -1.390625 C 3 -3.128906 2.171875 -5.390625 2.171875 -8.171875 C 2.171875 -10.671875 2.894531 -13.019531 4.34375 -15.21875 C 5.800781 -17.425781 8.703125 -19.660156 13.046875 -21.921875 L 20.796875 -25.921875 L 20.796875 -32.28125 C 20.796875 -34.25 20.375 -35.882812 19.53125 -37.1875 C 18.6875 -38.5 17.335938 -39.15625 15.484375 -39.15625 C 13.972656 -39.15625 12.707031 -38.660156 11.6875 -37.671875 C 10.675781 -36.679688 10.171875 -35.492188 10.171875 -34.109375 C 10.171875 -33.460938 10.316406 -32.765625 10.609375 -32.015625 C 10.847656 -31.203125 10.96875 -30.566406 10.96875 -30.109375 C 10.96875 -29.234375 10.617188 -28.476562 9.921875 -27.84375 C 9.222656 -27.207031 8.378906 -26.890625 7.390625 -26.890625 C 6.234375 -26.890625 5.304688 -27.304688 4.609375 -28.140625 C 3.910156 -28.984375 3.5625 -30.070312 3.5625 -31.40625 C 3.5625 -33.144531 4.15625 -34.753906 5.34375 -36.234375 C 6.539062 -37.710938 8.148438 -38.875 10.171875 -39.71875 C 12.203125 -40.5625 14.4375 -40.984375 16.875 -40.984375 Z M 9.390625 -10.96875 C 9.390625 -8.9375 9.851562 -7.253906 10.78125 -5.921875 C 11.71875 -4.585938 12.878906 -3.921875 14.265625 -3.921875 C 16.359375 -3.921875 18.535156 -5.425781 20.796875 -8.4375 L 20.796875 -23.484375 C 16.671875 -21.398438 13.738281 -19.441406 12 -17.609375 C 10.257812 -15.785156 9.390625 -13.570312 9.390625 -10.96875 Z M 9.390625 -10.96875 "/></g></g><g style="fill:#decda8;fill-opacity:1;"><g transform="translate(140.054805, 176.067065)"><path style="stroke:none" d="M 10.96875 -62.03125 C 12.175781 -62.03125 13.203125 -61.609375 14.046875 -60.765625 C 14.890625 -59.929688 15.3125 -58.90625 15.3125 -57.6875 C 15.3125 -56.46875 14.890625 -55.4375 14.046875 -54.59375 C 13.203125 -53.75 12.175781 -53.328125 10.96875 -53.328125 C 9.75 -53.328125 8.71875 -53.75 7.875 -54.59375 C 7.03125 -55.4375 6.609375 -56.46875 6.609375 -57.6875 C 6.609375 -58.90625 7.03125 -59.929688 7.875 -60.765625 C 8.71875 -61.609375 9.75 -62.03125 10.96875 -62.03125 Z M 14.609375 -7.046875 C 14.609375 -5.367188 15.03125 -4.019531 15.875 -3 C 16.71875 -1.988281 18.007812 -1.484375 19.75 -1.484375 L 19.75 0 L 2.171875 0 L 2.171875 -1.484375 L 2.78125 -1.484375 C 4.40625 -1.597656 5.625 -2.160156 6.4375 -3.171875 C 7.25 -4.191406 7.65625 -5.800781 7.65625 -8 L 7.65625 -31.140625 C 7.65625 -32.015625 7.4375 -32.867188 7 -33.703125 C 6.5625 -34.546875 5.820312 -34.96875 4.78125 -34.96875 C 4.144531 -34.96875 3.363281 -34.796875 2.4375 -34.453125 L 1.828125 -35.75 L 13.140625 -40.984375 L 14.609375 -40.984375 Z M 14.609375 -7.046875 "/></g></g><g style="fill:#decda8;fill-opacity:1;"><g transform="translate(155.538214, 176.067065)"><path style="stroke:none" d="M 14.53125 -62.03125 L 14.53125 -7.21875 C 14.53125 -3.394531 16.269531 -1.484375 19.75 -1.484375 L 19.75 0 L 2 0 L 2 -1.484375 C 3.96875 -1.484375 5.382812 -2.003906 6.25 -3.046875 C 7.125 -4.085938 7.5625 -5.796875 7.5625 -8.171875 L 7.5625 -50.203125 C 7.5625 -52.578125 7.269531 -54.140625 6.6875 -54.890625 C 6.113281 -55.648438 5.363281 -56.03125 4.4375 -56.03125 C 3.800781 -56.03125 2.988281 -55.851562 2 -55.5 L 1.390625 -56.890625 L 12.96875 -62.03125 Z M 14.53125 -62.03125 "/></g></g><g style="fill:#decda8;fill-opacity:1;"><g transform="translate(171.021623, 176.067065)"><path style="stroke:none" d="M 17.046875 -38.625 C 15.660156 -38.570312 14.644531 -38.328125 14 -37.890625 C 13.363281 -37.453125 13.046875 -36.738281 13.046875 -35.75 C 13.046875 -35.175781 13.117188 -34.640625 13.265625 -34.140625 C 13.410156 -33.648438 13.515625 -33.347656 13.578125 -33.234375 L 20.4375 -12.265625 L 20.625 -12.265625 L 25.921875 -32.96875 C 25.984375 -33.207031 26.113281 -33.703125 26.3125 -34.453125 C 26.519531 -35.203125 26.625 -35.867188 26.625 -36.453125 C 26.625 -37.203125 26.390625 -37.738281 25.921875 -38.0625 C 25.460938 -38.382812 24.707031 -38.570312 23.65625 -38.625 L 23.65625 -40.109375 L 32.890625 -40.109375 L 32.890625 -38.625 C 31.554688 -38.101562 30.640625 -37.390625 30.140625 -36.484375 C 29.648438 -35.585938 29.03125 -33.664062 28.28125 -30.71875 L 19.65625 2.953125 C 18.382812 7.828125 16.703125 11.539062 14.609375 14.09375 C 12.523438 16.644531 10.117188 17.921875 7.390625 17.921875 C 5.941406 17.921875 4.722656 17.5 3.734375 16.65625 C 2.753906 15.820312 2.265625 14.765625 2.265625 13.484375 C 2.265625 12.328125 2.640625 11.351562 3.390625 10.5625 C 4.148438 9.78125 5.109375 9.390625 6.265625 9.390625 C 7.367188 9.390625 8.441406 9.679688 9.484375 10.265625 C 10.410156 10.609375 11.019531 10.78125 11.3125 10.78125 C 12.644531 10.78125 13.832031 9.75 14.875 7.6875 C 15.914062 5.632812 16.757812 3.070312 17.40625 0 L 7.21875 -30.625 C 6.351562 -33.289062 5.554688 -35.175781 4.828125 -36.28125 C 4.097656 -37.382812 2.925781 -38.164062 1.3125 -38.625 L 1.3125 -40.109375 L 17.046875 -40.109375 Z M 17.046875 -38.625 "/></g></g><g clip-rule="nonzero" clip-path="url(#281b67200b)"><path style=" stroke:none;fill-rule:nonzero;fill:#decda8;fill-opacity:1;" d="M 94.613281 116.054688 C 86.523438 117.542969 85.316406 118.75 83.828125 126.839844 C 82.339844 118.75 81.132812 117.542969 73.042969 116.054688 C 81.132812 114.5625 82.339844 113.355469 83.828125 105.265625 C 85.316406 113.355469 86.523438 114.5625 94.613281 116.054688 Z M 94.613281 116.054688 "/></g></g></svg>